<?xml version="1.0" encoding="utf-8"?>
<!-- Generator: Adobe Illustrator 16.0.0, SVG Export Plug-In . SVG Version: 6.00 Build 0)  -->
<!DOCTYPE svg PUBLIC "-//W3C//DTD SVG 1.1//EN" "http://www.w3.org/Graphics/SVG/1.1/DTD/svg11.dtd">
<svg version="1.1" id="Layer_1" xmlns="http://www.w3.org/2000/svg" xmlns:xlink="http://www.w3.org/1999/xlink" x="0px" y="0px"
	 width="350px" height="107px" viewBox="0 0 350 107" enable-background="new 0 0 350 107" xml:space="preserve">
<g>
	<path fill-rule="evenodd" clip-rule="evenodd" fill="#FFFFFF" d="M28.896,56.171c4.943-0.002,9.886-0.008,14.83,0.002
		c1.024,0.002,1.909-0.376,2.181-1.342c0.175-0.622,0.082-1.563-0.299-2.032c-0.394-0.485-1.274-0.782-1.95-0.799
		c-3.977-0.097-7.957-0.084-11.936-0.116c-4.648-0.037-9.109-0.782-12.877-3.763c-6.133-4.854-8.647-11.258-7.212-18.881
		c1.486-7.893,6.67-12.634,14.262-14.736c2.189-0.606,4.531-0.884,6.808-0.909c9.173-0.102,18.349-0.002,27.522-0.07
		c3.186-0.024,4.237,2.666,3.379,4.446c-0.688,1.425-1.923,1.861-3.419,1.858c-7.373-0.011-14.747-0.055-22.119,0.02
		c-3.294,0.033-6.66-0.056-9.865,0.57c-5.306,1.037-9.068,4.168-10.387,9.663c-1.611,6.711,2.698,13.708,9.454,15.125
		c2.143,0.449,4.409,0.381,6.621,0.422c3.392,0.063,6.787-0.014,10.18,0.023c4.162,0.045,7.832,3.271,8.255,7.193
		c0.483,4.472-2.023,8.233-6.276,9.285c-1.001,0.248-2.072,0.301-3.111,0.303c-9.258,0.021-18.516,0.013-27.774,0.006
		c-0.5,0-1.005-0.037-1.499-0.115c-1.682-0.261-2.752-1.587-2.653-3.251c0.096-1.616,1.383-2.883,3.055-2.891
		C19.01,56.156,23.953,56.172,28.896,56.171z"/>
	<path fill-rule="evenodd" clip-rule="evenodd" fill="#FFFFFF" d="M45.495,24.235c5.027,0,10.053-0.003,15.08,0.002
		c1.943,0.002,3.278,1.217,3.316,2.993c0.038,1.797-1.356,3.158-3.312,3.161c-9.718,0.011-19.436-0.006-29.154,0.032
		c-0.658,0.002-1.526,0.187-1.916,0.624c-0.446,0.502-0.708,1.416-0.614,2.089c0.131,0.927,0.915,1.45,1.934,1.446
		c1.675-0.005,3.352-0.04,5.026,0.011c3.888,0.121,7.798,0.059,11.655,0.48c6.706,0.733,11.482,4.5,14.294,10.504
		c5.353,11.428-1.281,24.229-13.77,26.733c-2.363,0.474-4.81,0.714-7.221,0.738c-8.586,0.087-17.174,0.036-25.761,0.024
		c-0.538,0-1.087-0.058-1.611-0.178c-1.599-0.367-2.572-1.722-2.427-3.31c0.135-1.483,1.354-2.695,2.901-2.81
		c0.833-0.061,1.675-0.017,2.512-0.018c8.713-0.01,17.426,0.018,26.138-0.047c3.809-0.028,7.349-1.013,10.37-3.49
		c3.813-3.127,5.392-8.392,3.91-13.159c-1.582-5.093-5.62-8.602-10.693-8.865c-5.096-0.263-10.208-0.214-15.314-0.293
		c-4.16-0.064-7.767-3.131-8.255-7.035c-0.571-4.567,1.998-8.42,6.343-9.466c0.561-0.135,1.159-0.161,1.739-0.162
		C35.609,24.229,40.552,24.234,45.495,24.235z"/>
	<path fill-rule="evenodd" clip-rule="evenodd" fill="#FFFFFF" d="M326.806,31.552c-3.853,0-7.718-0.197-11.555,0.054
		c-4.003,0.262-7.465,1.979-9.229,5.775c-2.775,5.969,0.194,12.764,6.896,14.315c1.723,0.399,3.58,0.27,5.376,0.3
		c2.554,0.046,5.108,0,7.662,0.021c2.472,0.021,4.307,1.161,5.564,3.265c1.349,2.253,1.151,4.522-0.17,6.654
		c-0.522,0.845-1.368,1.605-2.243,2.083c-0.922,0.504-2.054,0.862-3.098,0.871c-7.704,0.074-15.41,0.059-23.116,0.038
		c-1.704-0.005-2.744-0.951-2.724-2.309c0.021-1.462,1.059-2.351,2.81-2.353c7.035-0.007,14.072,0.002,21.106-0.007
		c0.666-0.001,1.337-0.06,2-0.134c1.049-0.115,1.573-0.729,1.513-1.782c-0.063-1.117-0.722-1.654-1.806-1.661
		c-3.393-0.021-6.785-0.011-10.177-0.039c-4.872-0.039-9.021-1.724-12.087-5.604c-5.242-6.637-4.071-16.249,3.093-21.224
		c3.566-2.477,7.561-3.073,11.686-3.135c6.616-0.099,13.234-0.027,19.851-0.026c0.168,0,0.336-0.003,0.503,0.007
		c1.581,0.102,2.752,1.104,2.778,2.376c0.027,1.29-1.224,2.429-2.824,2.442c-3.936,0.031-7.873,0.01-11.81,0.01
		C326.806,31.511,326.806,31.531,326.806,31.552z"/>
	<path fill-rule="evenodd" clip-rule="evenodd" fill="#FFFFFF" d="M327.256,35.203c3.646-0.001,7.289-0.015,10.933,0.013
		c0.616,0.004,1.269,0.092,1.835,0.314c1.088,0.425,1.162,1.341,0.957,2.421c-0.42,2.196-1.924,2.103-3.552,2.098
		c-6.952-0.021-13.906-0.009-20.859-0.008c-0.378,0-0.759-0.024-1.13,0.021c-0.966,0.118-1.537,0.672-1.55,1.655
		c-0.013,1.037,0.559,1.679,1.592,1.735c1.253,0.068,2.513,0.003,3.769,0.032c3.013,0.069,6.028,0.097,9.036,0.257
		c6.162,0.33,12.118,6.373,12.755,12.456c0.271,2.581,0.122,4.993-0.795,7.354c-1.657,4.263-4.687,7.21-9.022,8.64
		c-1.67,0.55-3.482,0.854-5.24,0.904c-7.305,0.206-14.612,0.278-21.919,0.381c-0.707,0.011-1.427-0.049-2.119-0.189
		c-1.167-0.238-1.864-1.228-1.774-2.376c0.083-1.066,0.911-1.937,2.021-2.08c0.371-0.049,0.752-0.022,1.128-0.022
		c6.618-0.001,13.237,0.042,19.855-0.02c3.023-0.028,6.052-0.298,8.688-2.019c4.411-2.879,5.256-6.771,4.326-10.881
		c-1.068-4.725-4.776-7.462-9.55-7.548c-3.516-0.063-7.03-0.146-10.545-0.185c-4.702-0.051-6.612-2.972-6.89-5.967
		c-0.336-3.596,2.62-7.029,6.993-6.994C319.884,35.227,323.57,35.203,327.256,35.203z"/>
	<path fill-rule="evenodd" clip-rule="evenodd" fill="#FFFFFF" d="M82.746,42.462c4.548,0.633,6.813-0.239,8.287-3.418
		c0.691-1.49,1.059-3.157,1.382-4.783c0.25-1.259,0.219-2.576,0.282-3.869c0.083-1.708,1.355-3.047,3.001-3.121
		c1.598-0.072,3.11,1.081,3.149,2.758c0.143,6.089-0.753,11.885-5.614,16.239c-1.893,1.694-4.17,2.599-6.758,2.597
		c-2.93-0.002-5.861-0.027-8.79,0.021c-0.929,0.016-1.226-0.281-1.223-1.219c0.03-10.547,0.015-21.095,0.04-31.643
		c0.002-0.736,0.094-1.524,0.365-2.198c0.562-1.397,1.979-2.001,3.534-1.662c1.455,0.317,2.338,1.458,2.34,3.126
		c0.01,8.539,0.004,17.078,0.003,25.617C82.746,41.405,82.746,41.902,82.746,42.462z"/>
	<path fill-rule="evenodd" clip-rule="evenodd" fill="#FFFFFF" d="M135.461,42.761c0-8.957-0.005-17.915,0.003-26.872
		c0.002-2.45,1.6-3.917,3.774-3.499c1.231,0.236,2.032,0.979,2.321,2.18c0.164,0.682,0.216,1.404,0.216,2.109
		c0.012,17.454,0.011,34.907,0.002,52.361c0,0.622-0.047,1.257-0.179,1.862c-0.362,1.667-1.586,2.563-3.266,2.463
		c-1.467-0.089-2.688-1.299-2.856-2.854c-0.04-0.372-0.015-0.753-0.015-1.13C135.46,60.508,135.461,51.635,135.461,42.761z"/>
	<path fill-rule="evenodd" clip-rule="evenodd" fill="#FFFFFF" d="M163.937,42.773c0,9.005,0.005,18.011-0.004,27.018
		c-0.002,2.207-1.241,3.576-3.17,3.571c-1.509-0.004-2.734-1.014-2.995-2.506c-0.079-0.45-0.099-0.915-0.099-1.373
		c-0.005-17.761-0.005-35.522-0.002-53.283c0-2.568,1.269-4.026,3.341-3.874c1.791,0.132,2.917,1.418,2.922,3.427
		c0.015,5.781,0.007,11.562,0.007,17.342C163.937,36.322,163.937,39.547,163.937,42.773z"/>
	<path fill-rule="evenodd" clip-rule="evenodd" fill="#FFFFFF" d="M173.621,42.901c0,8.838,0.006,17.676-0.01,26.515
		c-0.002,0.702-0.045,1.443-0.271,2.097c-0.427,1.241-1.763,1.965-3.118,1.844c-1.344-0.118-2.406-1.017-2.741-2.383
		c-0.108-0.439-0.123-0.91-0.124-1.368c-0.005-17.844-0.005-35.688-0.002-53.532c0-2.235,0.935-3.485,2.738-3.712
		c1.775-0.225,3.227,0.873,3.48,2.646c0.047,0.33,0.05,0.667,0.05,1.002c0.003,8.963,0.002,17.927,0.002,26.892
		C173.625,42.901,173.623,42.901,173.621,42.901z"/>
	<path fill-rule="evenodd" clip-rule="evenodd" fill="#FFFFFF" d="M73.166,42.539c0,8.961,0.005,17.921-0.004,26.882
		c-0.002,2.579-1.925,4.216-4.114,3.372c-0.766-0.297-1.398-1.106-1.916-1.81c-0.285-0.387-0.279-1.042-0.279-1.575
		c-0.012-17.922-0.009-35.842-0.01-53.763c0-1.186,0.284-2.248,1.295-2.979c2.043-1.482,4.783-0.199,5.007,2.366
		c0.08,0.914,0.022,1.841,0.022,2.762C73.166,26.042,73.166,34.291,73.166,42.539z"/>
	<path fill-rule="evenodd" clip-rule="evenodd" fill="#FFFFFF" d="M151.382,42.828c-0.001,9.131,0.002,18.263-0.004,27.395
		c-0.002,1.639-1.031,2.895-2.512,3.124c-1.543,0.239-2.976-0.587-3.475-2.054c-0.13-0.384-0.164-0.817-0.164-1.229
		c-0.008-18.137-0.008-36.273-0.004-54.411c0.001-1.77,0.865-2.929,2.36-3.234c1.622-0.331,3.052,0.348,3.58,1.798
		c0.192,0.53,0.21,1.144,0.212,1.719C151.387,24.901,151.383,33.865,151.382,42.828z"/>
	<path fill-rule="evenodd" clip-rule="evenodd" fill="#FFFFFF" d="M94.623,50.837c0.618-0.667,1.065-1.226,1.587-1.701
		c4.185-3.819,5.734-8.806,6.299-14.219c0.147-1.412,0.191-2.836,0.241-4.256c0.069-1.965,1.357-3.378,3.138-3.392
		c1.809-0.013,3.13,1.329,3.12,3.371c-0.036,7.151-1.333,13.966-5.602,19.976c3.067,4.12,4.853,8.774,5.566,13.812
		c0.279,1.968,0.215,4.002,0.137,6c-0.061,1.5-1.695,2.724-3.181,2.607c-1.67-0.132-2.998-1.388-2.913-3.023
		c0.204-3.927-0.537-7.664-2.083-11.24c-1.192-2.756-2.794-5.243-5.297-7.036C95.3,51.494,95.012,51.185,94.623,50.837z"/>
	<path fill-rule="evenodd" clip-rule="evenodd" fill="#FFFFFF" d="M130.254,49.719c0,6.577,0.003,13.153-0.002,19.73
		c-0.002,1.896-0.904,3.138-2.465,3.442c-1.884,0.367-3.428-0.703-3.717-2.605c-0.075-0.493-0.086-1-0.086-1.501
		c-0.004-12.733-0.004-25.467-0.002-38.202c0-0.418-0.001-0.839,0.046-1.254c0.21-1.848,1.505-2.971,3.298-2.88
		c1.669,0.083,2.874,1.361,2.918,3.164c0.036,1.465,0.009,2.932,0.009,4.398C130.254,39.247,130.254,44.482,130.254,49.719z"/>
	<path fill-rule="evenodd" clip-rule="evenodd" fill="#FFFFFF" d="M76.824,52.668c3.998,0,7.944-0.215,11.854,0.066
		c3.415,0.244,5.982,2.295,7.717,5.21c2.256,3.788,2.814,7.998,2.668,12.319c-0.052,1.535-1.517,2.773-3.049,2.79
		c-1.555,0.017-2.884-1.157-3.077-2.739c-0.262-2.153-0.328-4.351-0.811-6.452c-0.561-2.439-1.725-4.641-4.583-5.014
		c-1.434-0.188-2.914-0.033-4.577-0.033c0,0.671,0,1.279,0,1.887c0,3.013,0.014,6.026-0.009,9.04
		c-0.01,1.31-0.553,2.359-1.772,2.946c-1.153,0.555-2.384,0.537-3.263-0.373c-0.617-0.639-1.204-1.629-1.219-2.472
		c-0.102-5.564-0.045-11.132-0.034-16.697C76.671,53.031,76.742,52.916,76.824,52.668z"/>
	<path fill-rule="evenodd" clip-rule="evenodd" fill="#FFFFFF" d="M114.053,49.663c0-6.617-0.002-13.234,0.001-19.851
		c0.001-2.097,1.136-3.354,3.025-3.369c1.882-0.016,3.126,1.264,3.128,3.307c0.009,13.318,0.008,26.636-0.001,39.954
		c-0.001,1.563-0.795,2.705-2.074,3.109c-1.364,0.431-2.838,0.019-3.548-1.17c-0.34-0.57-0.506-1.328-0.509-2.003
		C114.039,62.98,114.053,56.322,114.053,49.663z"/>
	<path fill-rule="evenodd" clip-rule="evenodd" fill="#FFFFFF" d="M245.31,49.777c0,6.362,0.001,12.725-0.002,19.088
		c0,0.46,0.016,0.925-0.043,1.379c-0.161,1.225-1.314,2.341-2.501,2.465c-1.137,0.12-2.448-0.689-2.858-1.846
		c-0.177-0.502-0.269-1.06-0.271-1.594c-0.014-12.892-0.014-25.785-0.001-38.678c0-0.623,0.073-1.26,0.224-1.863
		c0.3-1.207,1.494-2.078,2.694-2.048c1.245,0.032,2.453,1.023,2.677,2.255c0.088,0.489,0.078,1,0.078,1.501
		C245.311,36.884,245.31,43.33,245.31,49.777z"/>
	<path fill-rule="evenodd" clip-rule="evenodd" fill="#FFFFFF" d="M114.044,20.474c0.165-4.324,2.204-7.326,5.627-8.285
		c4.864-1.361,9.524,1.795,10.318,7.006c0.112,0.739,0.26,1.507,0.171,2.235c-0.199,1.644-1.505,2.732-3.081,2.725
		c-1.712-0.008-2.91-1.135-3.181-2.937c-0.104-0.693-0.139-1.487-0.51-2.022c-0.345-0.496-1.092-0.95-1.673-0.965
		c-0.408-0.011-0.949,0.686-1.221,1.181c-0.244,0.447-0.255,1.047-0.279,1.583c-0.093,2.077-1.379,3.422-3.248,3.349
		c-1.798-0.07-2.99-1.48-2.956-3.497C114.014,20.724,114.033,20.599,114.044,20.474z"/>
	<path fill-rule="evenodd" clip-rule="evenodd" fill="#FFFFFF" d="M245.319,20.69c-0.032,1.841-1.185,3.187-2.83,3.252
		c-1.417,0.055-2.678-1.231-2.899-2.914c-0.081-0.619-0.168-1.258-0.395-1.832c-0.385-0.975-1.184-1.366-2.221-1.248
		c-0.968,0.111-1.307,0.811-1.465,1.637c-0.102,0.533-0.126,1.08-0.205,1.618c-0.271,1.832-1.528,2.937-3.163,2.79
		c-1.505-0.135-2.586-1.543-2.554-3.324c0.069-3.796,2.161-7.048,5.165-8.038c4.91-1.619,8.987,1.35,10.225,5.961
		C245.159,19.273,245.209,19.99,245.319,20.69z"/>
	<g>
		
			<circle fill="none" stroke="#FFFFFF" stroke-width="5.726" stroke-linecap="round" stroke-miterlimit="20" cx="273.112" cy="50.387" r="10.462"/>
		<path fill="none" stroke="#FFFFFF" stroke-width="6" stroke-linecap="round" stroke-miterlimit="20" d="M269.035,83.533
			c0,0,6.598,3.665,11.208-0.953c3.716-3.723,3.023-10.164,3.023-10.164V67.14c-3.174,2.064-6.406,3.067-10.476,3.067
			c-11.183,0-20.247-9.063-20.247-20.246c0-11.184,9.064-20.247,20.247-20.247c11.181,0,20.246,9.064,20.246,20.247v27.173
			c0,0,0.233,13.186-14.277,16.931c-8.396,2.167-15.137-1.95-15.137-1.95"/>
	</g>
	<g>
		
			<circle fill="none" stroke="#FFFFFF" stroke-width="5.726" stroke-linecap="round" stroke-miterlimit="20" cx="201.112" cy="50.387" r="10.462"/>
		<path fill="none" stroke="#FFFFFF" stroke-width="6" stroke-linecap="round" stroke-miterlimit="20" d="M197.035,83.533
			c0,0,6.598,3.665,11.208-0.953c3.716-3.723,3.023-10.164,3.023-10.164V67.14c-3.174,2.064-6.406,3.067-10.476,3.067
			c-11.183,0-20.247-9.063-20.247-20.246c0-11.184,9.064-20.247,20.247-20.247c11.181,0,20.246,9.064,20.246,20.247v27.173
			c0,0,0.233,13.186-14.277,16.931c-8.396,2.167-15.137-1.95-15.137-1.95"/>
	</g>
	<path fill-rule="evenodd" clip-rule="evenodd" fill="#FFFFFF" d="M235.35,49.858c0,6.362,0.001,12.724-0.002,19.087
		c0,0.461,0.016,0.926-0.043,1.379c-0.161,1.225-1.314,2.342-2.501,2.465c-1.137,0.121-2.448-0.689-2.858-1.846
		c-0.177-0.502-0.269-1.059-0.271-1.594c-0.014-12.891-0.014-25.784-0.001-38.677c0-0.623,0.073-1.26,0.224-1.863
		c0.3-1.207,1.494-2.078,2.694-2.048c1.245,0.032,2.453,1.023,2.677,2.255c0.088,0.489,0.078,1,0.078,1.501
		C235.351,36.965,235.35,43.411,235.35,49.858z"/>
</g>
<text transform="matrix(1 0 0 1 327.5781 29.8711)" fill="#FFFFFF" font-family="'MyriadPro-Regular'" font-size="21.711">™</text>
</svg>
